<?xml version="1.0" encoding="utf-8"?>
<svg version="1.1"
	 xmlns="http://www.w3.org/2000/svg" xmlns:xlink="http://www.w3.org/1999/xlink" x="0px" y="0px" viewBox="0 0 401.4 111.2"
	 style="enable-background:new 0 0 401.4 111.2;" xml:space="preserve">
<style type="text/css">
	.st0{fill-rule:evenodd;clip-rule:evenodd;fill:#212121;}
</style>
<path class="st0" d="M56,4.8L73.5,15l0,0L91,25.1c1.9,1.1,3.4,2.6,4.4,4.3l0,0c1,1.7,1.5,3.8,1.5,5.9v40.5c0,2.2-0.5,4.2-1.5,5.9
	l0,0c-1,1.7-2.5,3.2-4.4,4.3L73.5,96.2l0,0L56,106.3l0,0c-1.9,1.1-3.9,1.6-5.9,1.6s-4-0.5-5.9-1.6l0,0L26.6,96.2l0,0L9.1,86.1
	c-1.9-1.1-3.4-2.6-4.4-4.3l0,0c-1-1.7-1.5-3.8-1.5-5.9V35.3c0-2.2,0.5-4.2,1.5-5.9l0,0c1-1.7,2.5-3.2,4.4-4.3L26.6,15l0,0L44.2,4.8
	c1.9-1.1,3.9-1.6,5.9-1.6S54.1,3.8,56,4.8L56,4.8z M50.1,27.1c-7.9,0-15,3.2-20.1,8.4c-5.2,5.2-8.4,12.3-8.4,20.2s3.2,15,8.4,20.2
	s12.3,8.3,20.1,8.3s15-3.2,20.2-8.3c5.2-5.2,8.3-12.3,8.3-20.2s-3.2-15-8.3-20.2S58,27.1,50.1,27.1z M68,87.2
	c-5.1,2.9-10.8,4.4-16.5,4.7v12.7c1.4-0.2,2.7-0.7,4-1.4l16.2-9.4L68,87.2L68,87.2z M65.5,82.7c-4.5,2.6-9.8,4.1-15.4,4.1
	s-10.9-1.5-15.5-4.1l-1,1.9c5.1,2.9,10.8,4.3,16.5,4.3s11.3-1.4,16.5-4.3C66.5,84.6,65.5,82.7,65.5,82.7z M29.4,39.8
	c8-7.2,33.3-7.2,41.3,0c5.4,4.6,6.2,16.8,2.8,25.3c-6.9,17.8-41.8,17.4-47.6-1.9C23.4,54.8,24.4,44,29.4,39.8z M11.8,27.1
	c-1.8,1-3.1,2.4-4.1,4c-0.9,1.6-1.4,3.5-1.4,5.5v37.9c0,2,0.5,3.9,1.4,5.5s2.3,3,4.1,4l14,8.1L32,81c-1.4-1-2.8-2.1-4-3.4
	c-2.7-2.7-5-6-6.5-9.6h-1.8c-1.9,0-3.6-1.3-4.1-3.1c-0.8-3-1.2-6.1-1.2-9.3s0.4-6.4,1.2-9.3c0.5-1.9,2.1-3.1,4.1-3.1h1.8
	c1.6-3.6,3.8-6.8,6.5-9.5c5.6-5.6,13.4-9.1,22-9.1s16.4,3.5,22,9.1c2.7,2.7,4.9,6,6.5,9.5h1v-7.7c-0.8-0.4-1.4-1.2-1.4-2.2
	c0-1.3,1.1-2.4,2.4-2.4s2.4,1.1,2.4,2.4c0,1-0.6,1.8-1.4,2.2v7.9c1.4,0.4,2.5,1.5,2.9,3c0.8,3,1.2,6.1,1.2,9.3S85.3,62,84.5,65
	c-0.5,1.9-2.2,3.1-4.1,3.1h-1.8c-1.6,3.6-3.8,6.8-6.5,9.6c-1.3,1.3-2.6,2.4-4.1,3.4l6.4,11.1l14-8.1c1.8-1,3.1-2.4,4.1-4
	c0.9-1.6,1.4-3.5,1.4-5.5V36.7c0-2-0.5-3.9-1.4-5.5c-0.9-1.6-2.3-3-4.1-4L72,17.7l0,0L55.6,8.2c-1.8-1-3.6-1.5-5.5-1.5
	s-3.8,0.5-5.5,1.5l-16.4,9.5l0,0L11.8,27.1z M66.4,40c-4.8-2.1-12.7-3.2-20-2.7c9.8,0.7,15.9,4.3,18.3,10.8c2.4,6.4,2,18.3-2.2,23.9
	c3.8-1.8,6.8-4.6,8.3-8.3c0.9-2.3,1.4-4.9,1.7-7.4c0.2-1.9,0.2-4.7-0.2-7.4C71.5,44.5,69.5,41.4,66.4,40z M392.3,47.3
	c0.7-1.9,1.9-3.3,3.6-4.3c1.6-1,3.5-1.4,5.5-1.4v8.6c-2.4-0.3-4.5,0.2-6.3,1.4c-1.9,1.2-2.8,3.3-2.8,6.2v14.3h-7.7v-30h7.7
	L392.3,47.3L392.3,47.3z M373.6,54.3h-15.2c0.4-1.9,1.3-3.4,2.7-4.5c1.4-1.1,3.1-1.6,5.1-1.6c1.8,0,3.3,0.5,4.7,1.5
	C372.3,50.8,373.2,52.3,373.6,54.3L373.6,54.3z M366.9,65.9c-4.6,0-7.4-1.9-8.4-5.6H381c0.2-1.1,0.3-2.2,0.3-3.2
	c0-4.5-1.4-8.2-4.3-11.2s-6.5-4.5-10.9-4.5c-4.6,0-8.4,1.5-11.4,4.5s-4.4,6.8-4.4,11.3s1.5,8.3,4.5,11.3s7,4.5,11.9,4.5
	c5.7,0,10.1-2.1,13-6.4l-6.2-3.6C372.1,64.9,369.9,65.9,366.9,65.9L366.9,65.9z M342.3,42.2h8.5l-11.4,29.9h-8.8l-11.4-29.9h8.5
	l7.2,20.9L342.3,42.2L342.3,42.2z M307.8,42.2v29.9h7.7v-30C315.5,42.1,307.8,42.1,307.8,42.2z M294.2,47.3c0.7-1.9,1.9-3.3,3.6-4.3
	c1.6-1,3.5-1.4,5.5-1.4v8.6c-2.4-0.3-4.5,0.2-6.3,1.4c-1.9,1.2-2.8,3.3-2.8,6.2v14.3h-7.7v-30h7.7L294.2,47.3L294.2,47.3z
	 M265.3,65.5c-2.4,0-4.4-0.8-6-2.4s-2.4-3.6-2.4-6.1s0.8-4.5,2.4-6.1s3.6-2.4,6-2.4s4.4,0.8,5.9,2.4c1.5,1.6,2.3,3.6,2.3,6.1
	s-0.8,4.5-2.3,6.1C269.6,64.8,267.7,65.5,265.3,65.5z M281.2,30.2l-7.7,2.1v13.4c-2.3-2.9-5.5-4.4-9.7-4.4s-7.5,1.5-10.3,4.6
	s-4.3,6.8-4.3,11.2s1.4,8.2,4.3,11.2s6.3,4.6,10.3,4.6s7.4-1.5,9.7-4.4V72h7.7C281.2,72.1,281.2,30.2,281.2,30.2z M230.9,50.7
	c0,0.8,0.5,1.5,1.6,1.9c1.1,0.5,2.3,0.9,3.9,1.3c1.5,0.4,3,0.9,4.5,1.4s2.8,1.5,3.9,2.9c1.1,1.4,1.6,3,1.6,5.1
	c0,3.1-1.1,5.4-3.4,7.1c-2.3,1.7-5.1,2.5-8.6,2.5c-6.1,0-10.3-2.4-12.6-7.1l6.7-3.8c0.9,2.6,2.8,3.9,5.9,3.9c2.8,0,4.1-0.9,4.1-2.6
	c0-0.8-0.5-1.5-1.6-1.9c-1.1-0.5-2.3-1-3.9-1.3c-1.5-0.4-3-0.9-4.5-1.5s-2.8-1.5-3.9-2.8c-1.1-1.3-1.6-2.9-1.6-4.9
	c0-3,1.1-5.3,3.3-7s4.9-2.5,8.1-2.5c2.4,0,4.6,0.5,6.6,1.7c2,1.1,3.6,2.7,4.7,4.7l-6.6,3.6c-1-2-2.6-3-4.8-3c-1,0-1.8,0.2-2.5,0.7
	C231.2,49.3,230.9,49.9,230.9,50.7L230.9,50.7z M206.5,52.6c-1.1-0.5-1.6-1.2-1.6-1.9s0.3-1.4,1-1.8c0.7-0.4,1.5-0.7,2.5-0.7
	c2.2,0,3.8,1,4.8,3l6.6-3.6c-1.2-2-2.7-3.6-4.7-4.7c-2-1.1-4.2-1.7-6.6-1.7c-3.2,0-5.9,0.8-8.1,2.5c-2.2,1.7-3.3,4-3.3,7
	c0,2,0.5,3.6,1.6,4.9c1.1,1.3,2.3,2.2,3.9,2.8c1.5,0.6,3,1.1,4.5,1.5s2.8,0.8,3.9,1.3s1.6,1.2,1.6,1.9c0,1.7-1.4,2.6-4.1,2.6
	c-3,0-5-1.3-5.9-3.9l-6.7,3.8c2.2,4.8,6.4,7.1,12.6,7.1c3.4,0,6.3-0.8,8.6-2.5s3.4-4,3.4-7.1c0-2-0.5-3.7-1.6-5.1
	c-1.1-1.4-2.3-2.3-3.9-2.9c-1.5-0.6-3-1.1-4.5-1.4C208.9,53.5,207.6,53.1,206.5,52.6z M170.3,63.2c1.6,1.6,3.5,2.4,5.9,2.4
	s4.4-0.8,5.9-2.4c1.6-1.6,2.4-3.6,2.4-6.1s-0.8-4.5-2.4-6.1c-1.6-1.6-3.6-2.4-5.9-2.4s-4.4,0.8-5.9,2.4c-1.6,1.6-2.3,3.6-2.3,6.1
	S168.7,61.6,170.3,63.2z M184.5,42.2h7.7v29.9h-7.7v-3.5c-2.3,2.9-5.6,4.4-9.8,4.4s-7.4-1.5-10.2-4.6s-4.3-6.8-4.3-11.2
	s1.4-8.2,4.3-11.2c2.9-3,6.3-4.6,10.2-4.6c4.2,0,7.4,1.5,9.8,4.4V42.2L184.5,42.2z M153.4,44.7c-2.1-2.2-4.8-3.3-8.2-3.3
	c-3.9,0-6.9,1.4-8.9,4.3c-1.8-2.9-4.5-4.3-8.1-4.3s-6.5,1.3-8.3,4v-3.2h-7.7v29.9h7.7V55.2c0-2.2,0.5-3.9,1.5-5
	c1-1.2,2.4-1.7,4.1-1.7c1.6,0,2.8,0.5,3.7,1.5s1.3,2.4,1.3,4.2v17.9h7.7V55.3c0-2.2,0.5-3.9,1.5-5c1-1.2,2.3-1.7,4.1-1.7
	c1.6,0,2.8,0.5,3.7,1.5s1.3,2.4,1.3,4.2v17.9h7.7V53.7C156.5,49.9,155.5,46.9,153.4,44.7L153.4,44.7z M307.8,31.5l7.7-1.9v7.7
	l-7.7,1.9V31.5z M28.3,93.7l16.2,9.4c1.3,0.8,2.7,1.2,4,1.4V91.8C42.8,91.6,37.2,90,32,87.1L28.3,93.7L28.3,93.7z"/>
</svg>
